# xmcd
#
# Track frame offsets: 
#        187
#        18632
#        33999
#        53099
#        71462
#        92312
#        111487
#        129229
#        149749
#        168569
#
# Disc length: 2516 seconds
#
# Revision: 1
# Processed by: cddbd v1.5.2PL0 Copyright (c) Steve Scherf et al.
# Submitted via: ExactAudioCopy v0.99pb3
#
DISCID=8809d20a
DTITLE=Ray Parker Jr. - Greatest Hits
DYEAR=1900
DGENRE=Soul
TTITLE0=The Other Woman
TTITLE1=You Can`t Change That
TTITLE2=Let Me Go
TTITLE3=A Woman Needs Love (Just Like You Do)
TTITLE4=Jack And Jill
TTITLE5=Bad Boy
TTITLE6=Two Places At The Same Time
TTITLE7=For Those Who Like To Groove
TTITLE8=That Old Song
TTITLE9=The People Next Door
EXTD=
EXTT0=
EXTT1=
EXTT2=
EXTT3=
EXTT4=
EXTT5=
EXTT6=
EXTT7=
EXTT8=
EXTT9=
PLAYORDER=
